# xmcd
#
# Track frame offsets: 
#        150
#        12784
#        24826
#        33796
#        44559
#        57957
#        71366
#        81470
#        93340
#        106466
#        117650
#        130699
#        143211
#        154539
#        167363
#        179538
#        190616
#        203577
#        216134
#        227608
#
# Disc length: 3186 seconds
#
# Revision: 1
# Processed by: cddbd v1.5.2PL0 Copyright (c) Steve Scherf et al.
# Submitted via: ExactAudioCopyFreeDBPlugin 1.0
#
DISCID=020c7014
DTITLE=The Platters - The Ultimate Collection [CD 2 of 3]
DYEAR=2014
DGENRE=Vocal
TTITLE0=My Prayer [1956]
TTITLE1=The Great Pretender [1955]
TTITLE2=I'll Get By [1956]
TTITLE3=Red Sails In The Sunset [1959]
TTITLE4=Until The Real Thing Comes Along [1959]
TTITLE5=My Blue Heaven [1958]
TTITLE6=I Don't Know Why [1956]
TTITLE7=That Old Black Magic [1961]
TTITLE8=One In A Million [1956]
TTITLE9=Somebody Loves Me [1959]
TTITLE10=I'll Never Smile Again [1958]
TTITLE11=Sweet Sixteen [1957]
TTITLE12=Trees [1960]
TTITLE13=To Each His Own [1959]
TTITLE14=Helpless [1957]
TTITLE15=Ebb Tide [1959]
TTITLE16=Only Because [1957]
TTITLE17=You're Making A Mistake [1957]
TTITLE18=It's Magic [1960]
TTITLE19=Summertime [1962]
EXTD=YEAR: 2014
EXTT0=
EXTT1=
EXTT2=
EXTT3=
EXTT4=
EXTT5=
EXTT6=
EXTT7=
EXTT8=
EXTT9=
EXTT10=
EXTT11=
EXTT12=
EXTT13=
EXTT14=
EXTT15=
EXTT16=
EXTT17=
EXTT18=
EXTT19=
PLAYORDER=
